<svg aria-hidden="true" version="1.1" xmlns="http://www.w3.org/2000/svg" xmlns:xlink="http://www.w3.org/1999/xlink">
<defs>
<symbol id="facebook" viewBox="0 0 512 512">
<path d="m30 10h452c11 0 20 9 20 20v452c0 11-9 20-20 20h-130.839844v-187.789062h65.296875l10.125-76.9375h-75.421875v-66.816407c0-4.300781 3.796875-8.097656 8.101563-8.097656h67.320312v-76.9375h-67.320312c-46.773438 0-85.039063 38.265625-85.039063 85.035156v66.816407h-63.269531v76.9375h63.269531v187.789062h-244.222656c-11 0-20-9-20-20v-452c0-11 9-20 20-20zm0 0" fill="#4267b2" fill-rule="evenodd"/><path d="m426.578125 75.421875h-67.320313c-52.402343 0-95.035156 42.632813-95.035156 95.035156v56.816407h-53.273437c-5.519531 0-10 4.476562-10 10v76.9375c0 5.523437 4.480469 10 10 10h53.273437v167.789062h-234.222656c-5.515625 0-10-4.484375-10-10v-452c0-5.515625 4.484375-10 10-10h20c5.523438 0 10-4.476562 10-10s-4.476562-10-10-10h-20c-16.542969 0-30 13.457031-30 30v452c0 16.542969 13.457031 30 30 30h244.222656c5.523438 0 10-4.476562 10-10v-187.789062c0-5.523438-4.476562-10-10-10h-53.269531v-56.941407h53.269531c5.523438 0 10-4.476562 10-10v-66.8125c0-41.375 33.660156-75.039062 75.039063-75.039062h57.320312v56.9375h-57.320312c-9.8125 0-18.101563 8.289062-18.101563 18.101562v66.8125c0 5.523438 4.476563 10 10 10h64.019532l-7.492188 56.941407h-56.527344c-5.519531 0-10 4.476562-10 10v187.789062c0 5.523438 4.480469 10 10 10h30.839844c5.523438 0 10-4.476562 10-10s-4.476562-10-10-10h-20.839844v-167.789062h55.296875c5.019531 0 9.261719-3.722657 9.914063-8.695313l10.125-76.941406c.375-2.851563-.496094-5.730469-2.394532-7.894531-1.898437-2.167969-4.640624-3.40625-7.519531-3.40625h-65.417969v-54.914063h65.417969c5.523438 0 10-4.476563 10-10v-76.9375c-.003906-5.523437-4.480469-10-10.003906-10zm0 0"/><path d="m482 0h-352c-5.523438 0-10 4.476562-10 10s4.476562 10 10 10h352c5.515625 0 10 4.484375 10 10v452c0 5.515625-4.484375 10-10 10h-20c-5.523438 0-10 4.476562-10 10s4.476562 10 10 10h20c16.542969 0 30-13.457031 30-30v-452c0-16.542969-13.457031-30-30-30zm0 0"/><path d="m422.003906 492h-.007812c-5.523438 0-9.996094 4.476562-9.996094 10s4.480469 10 10.003906 10c5.523438 0 10-4.476562 10-10s-4.476562-10-10-10zm0 0"/><path d="m90.003906 20c5.523438 0 10-4.476562 10-10s-4.476562-10-10-10h-.007812c-5.523438 0-9.996094 4.476562-9.996094 10s4.480469 10 10.003906 10zm0 0"/>
</symbol>
<symbol id="instagram" viewBox="0 0 512 512">
<linearGradient id="a"><stop offset="0" stop-color="#5557cf"/><stop offset=".4973" stop-color="#d52b8c"/><stop offset="1" stop-color="#fed56c"/></linearGradient><linearGradient id="b" gradientUnits="userSpaceOnUse" x1="45.2497" x2="469.2544" xlink:href="#a" y1="45.2495" y2="469.2542"/><linearGradient id="c" gradientUnits="userSpaceOnUse" x1="170.9987" x2="595.0034" xlink:href="#a" y1="-80.9982" y2="343.0065"/><linearGradient id="d" gradientUnits="userSpaceOnUse" x1="45.0004" x2="469.0051" xlink:href="#a" y1="45.0001" y2="469.0049"/><g fill-rule="evenodd"><path d="m130 50h252c44 0 80 36 80 80v252c0 44-36 80-80 80h-252c-44 0-80-36-80-80v-252c0-44 36-80 80-80zm252-40h-252c-66 0-120 54-120 120v252c0 66 54 120 120 120h252c66 0 120-54 120-120v-252c0-66-53.996094-120-120-120zm0 0" fill="url(#b)"/><path d="m382 50h-252c-44 0-80 36-80 80v252c0 44 36 80 80 80h252c44 0 80-36 80-80v-252c0-44-36-80-80-80zm0 50.003906c16.566406 0 30 13.429688 30 30 0 16.566406-13.433594 30-30 30-16.570312 0-30-13.433594-30-30 0-16.570312 13.429688-30 30-30zm-126 55.996094c55.226562 0 100 44.769531 100 100 0 55.226562-44.773438 100-100 100s-100-44.773438-100-100 44.773438-100 100-100zm0 0" fill="#fff"/><path d="m412 130.003906c0 16.566406-13.433594 30-30 30-16.570312 0-30-13.433594-30-30 0-16.570312 13.429688-30 30-30 16.566406 0 30 13.429688 30 30zm0 0" fill="url(#c)"/><path d="m356 256c0-55.226562-44.773438-100-100-100s-100 44.769531-100 100c0 55.226562 44.773438 100 100 100 55.230469 0 100-44.773438 100-100zm-100-60c33.136719 0 60 26.863281 60 60s-26.863281 60-60 60-60-26.863281-60-60 26.863281-60 60-60zm0 0" fill="url(#d)"/><path d="m316 256c0 33.136719-26.863281 60-60 60s-60-26.863281-60-60 26.863281-60 60-60 60 26.863281 60 60zm0 0" fill="#fff"/></g><path d="m382 0h-146c-5.523438 0-10 4.476562-10 10s4.476562 10 10 10h146c60.652344 0 110 49.34375 110 110v252c0 60.65625-49.347656 110-110 110h-252c-60.652344 0-110-49.34375-110-110v-252c0-60.65625 49.347656-110 110-110h26c5.523438 0 10-4.476562 10-10s-4.476562-10-10-10h-26c-71.683594 0-130 58.316406-130 130v252c0 71.683594 58.316406 130 130 130h252c71.683594 0 130-58.316406 130-130v-252c0-71.683594-58.316406-130-130-130zm0 0"/><path d="m356 472h26c49.625 0 90-40.375 90-90v-252c0-49.625-40.375-90-90-90h-252c-49.625 0-90 40.375-90 90v252c0 49.625 40.375 90 90 90h146c5.523438 0 10-4.476562 10-10s-4.476562-10-10-10h-146c-38.597656 0-70-31.402344-70-70v-252c0-38.597656 31.402344-70 70-70h252c38.597656 0 70 31.402344 70 70v252c0 38.597656-31.402344 70-70 70h-26c-5.523438 0-10 4.476562-10 10s4.476562 10 10 10zm0 0"/><path d="m366 256c0-60.652344-49.347656-110-110-110s-110 49.347656-110 110 49.347656 110 110 110 110-49.347656 110-110zm-110 90c-49.625 0-90-40.375-90-90s40.375-90 90-90 90 40.375 90 90-40.375 90-90 90zm0 0"/><path d="m256 186c-38.597656 0-70 31.402344-70 70s31.402344 70 70 70 70-31.402344 70-70-31.402344-70-70-70zm0 120c-27.570312 0-50-22.429688-50-50s22.429688-50 50-50 50 22.429688 50 50-22.429688 50-50 50zm0 0"/><path d="m422 130.003906c0-22.058594-17.945312-40-40-40-22.058594 0-40 17.941406-40 40 0 22.054688 17.941406 40 40 40 22.054688 0 40-17.945312 40-40zm-60 0c0-11.03125 8.972656-20 20-20s20 8.96875 20 20c0 11.027344-8.972656 20-20 20s-20-8.972656-20-20zm0 0"/><path d="m196.003906 20c5.523438 0 10-4.476562 10-10s-4.476562-10-10-10h-.007812c-5.519532 0-9.996094 4.476562-9.996094 10s4.480469 10 10.003906 10zm0 0"/><path d="m315.996094 452c-5.523438 0-9.996094 4.476562-9.996094 10s4.480469 10 10.003906 10c5.523438 0 10-4.476562 10-10s-4.476562-10-10-10zm0 0"/>
</symbol>
<symbol id="linkedin" viewBox="0 0 512 512">
<g fill-rule="evenodd">
<path d="m482 10h-452c-11 0-20 9-20 20v452c0 11 9 20 20 20h452c11 0 20-9 20-20v-452c0-11-9-20-20-20zm0 0" fill="#0274b3"/>
<path d="m166 124c0 23.609375-19.140625 42.75-42.75 42.75s-42.75-19.140625-42.75-42.75 19.140625-42.75 42.75-42.75 42.75 19.140625 42.75 42.75zm0 0" fill="#fff"/>
<path d="m86.5 196.75h73.5v234h-73.5zm0 0" fill="#fff"/>
<path d="m204 196.75v234h73.5v-135.0625c0-22.136719 18.109375-40.25 40.25-40.25 22.136719 0 40.25 18.113281 40.25 40.25v135.0625h73.5v-151.75c0-47.988281-39.261719-87.25-87.25-87.25-28.882812 0-54.597656 14.226562-70.5 36.011719v-31.011719zm0 0" fill="#fff"/></g>
<path d="m382 492h-352c-5.515625 0-10-4.484375-10-10v-452c0-5.515625 4.484375-10 10-10h20c5.523438 0 10-4.476562 10-10s-4.476562-10-10-10h-20c-16.542969 0-30 13.457031-30 30v452c0 16.542969 13.457031 30 30 30h352c5.519531 0 10-4.476562 10-10s-4.476562-10-10-10zm0 0"/>
<path d="m482 0h-352c-5.523438 0-10 4.476562-10 10s4.476562 10 10 10h352c5.515625 0 10 4.484375 10 10v452c0 5.515625-4.484375 10-10 10h-20c-5.523438 0-10 4.476562-10 10s4.476562 10 10 10h20c16.542969 0 30-13.460938 30-30v-452c0-16.542969-13.457031-30-30-30zm0 0"/>
<path d="m123.25 176.75c29.085938 0 52.75-23.664062 52.75-52.75 0-29.089844-23.664062-52.75-52.75-52.75-29.089844 0-52.75 23.664062-52.75 52.75s23.660156 52.75 52.75 52.75zm0-85.5c18.058594 0 32.75 14.691406 32.75 32.75s-14.691406 32.75-32.75 32.75-32.75-14.691406-32.75-32.75 14.691406-32.75 32.75-32.75zm0 0"/>
<path d="m344.25 181.75c-22.101562 0-43.433594 7.6875-60.5 21.273438v-6.273438c0-5.523438-4.480469-10-10-10h-69.75c-5.523438 0-10 4.476562-10 10v234c0 5.523438 4.476562 10 10 10h73.5c5.519531 0 10-4.476562 10-10v-135.0625c0-16.679688 13.570312-30.25 30.25-30.25s30.25 13.570312 30.25 30.25v135.0625c0 5.523438 4.476562 10 10 10h73.5c5.519531 0 10-4.476562 10-10v-151.75c0-53.625-43.628906-97.25-97.25-97.25zm77.25 239h-53.5v-125.0625c0-27.707031-22.542969-50.25-50.25-50.25-27.710938 0-50.25 22.542969-50.25 50.25v125.0625h-53.5v-214h49.75v21.011719c0 4.328125 2.78125 8.164062 6.898438 9.507812 4.109374 1.339844 8.625-.117187 11.175781-3.613281 14.585937-19.976562 37.921875-31.90625 62.425781-31.90625 42.59375 0 77.25 34.652344 77.25 77.25zm0 0"/>
<path d="m86.5 186.75c-5.523438 0-10 4.476562-10 10v234c0 5.523438 4.476562 10 10 10h73.5c5.519531 0 10-4.476562 10-10v-234c0-5.523438-4.480469-10-10-10zm63.5 234h-53.5v-214h53.5zm0 0"/>
<path d="m90.003906 20c5.519532 0 10-4.476562 10-10s-4.480468-10-10-10h-.007812c-5.523438 0-9.996094 4.476562-9.996094 10s4.480469 10 10.003906 10zm0 0"/>
<path d="m422.003906 492h-.007812c-5.523438 0-9.996094 4.476562-9.996094 10s4.480469 10 10.003906 10c5.523438 0 10-4.476562 10-10s-4.476562-10-10-10zm0 0"/>
</symbol>
<symbol id="twitter" viewBox="0 0 512 400">
<path d="m350.886719 10.496094c28.703125 0 54.59375 12.03125 72.910156 31.320312v-.003906c7.316406-.390625 39.859375-6.832031 65.316406-24.714844 0 0-1.289062 26.742188-42.371093 55.738282 0 0 25.613281-1.929688 55.257812-14.980469-10.90625 19.996093-31.765625 40.933593-50.585938 53.167969 0 239.984374-249.683593 376.648437-441.414062 250.667968 91.183594 8.539063 147.890625-40.597656 147.890625-40.597656-75.878906-2.578125-93.921875-69.59375-93.921875-69.59375 24.003906 2.578125 45.109375-2.417969 45.109375-2.417969-86.191406-21.101562-79.90625-99.234375-79.90625-99.234375 20.78125 12.886719 43.980469 12.402344 43.980469 12.402344-75.714844-58.960938-29.964844-133.390625-29.964844-133.390625 44.558594 53.15625 136.445312 112.203125 209.574219 104.078125-1.566407-7.054688-2.398438-14.386719-2.398438-21.914062 0-55.519532 45.003907-100.527344 100.523438-100.527344zm0 0" fill="#2daae1" fill-rule="evenodd"/><path d="m266.492188 379.847656c-71.277344 28.828125-148.925782 25.710938-218.027344-7.769531 71.027344-5.238281 113.890625-41.617187 115.976562-43.421875 3.105469-2.695312 4.25-7.015625 2.878906-10.894531-1.371093-3.878907-4.980468-6.519531-9.089843-6.65625-28.171875-.957031-50.890625-11.558594-67.523438-31.511719-5.082031-6.097656-8.828125-12.207031-11.492187-17.351562 17.917968-.113282 31.445312-3.253907 32.167968-3.421876 4.496094-1.066406 7.679688-5.074218 7.695313-9.695312.019531-4.621094-3.132813-8.652344-7.621094-9.75-54.75-13.40625-68.28125-51.574219-71.472656-73.257812 17.414063 6.367187 32.558594 6.152343 33.378906 6.136718 4.230469-.089844 7.949219-2.832031 9.28125-6.847656 1.332031-4.019531-.007812-8.441406-3.347656-11.039062-50.53125-39.351563-41.796875-85.648438-33.519531-107.589844 6.902344 7.292968 14.523437 14.550781 22.777344 21.679687 4.179687 3.613281 10.492187 3.152344 14.105468-1.027343 3.609375-4.179688 3.152344-10.492188-1.027344-14.101563-11.773437-10.175781-22.128906-20.566406-30.78125-30.886719-2.066406-2.464844-5.191406-3.789062-8.394531-3.550781-3.207031.234375-6.105469 2-7.789062 4.738281-.519531.84375-12.730469 20.992188-14.863281 49.0625-1.503907 19.792969 1.902343 46.457032 22.136718 72.640625-2.507812-1.128906-5.03125-2.449219-7.5-3.980469-2.960937-1.835937-6.667968-2-9.777344-.425781-3.113281 1.570313-5.179687 4.648438-5.460937 8.125-.070313.894531-1.648437 22.214844 8.367187 46.339844 6.128907 14.773437 17.492188 32.511719 38.507813 46.277344-.347656-.03125-.691406-.066407-1.039063-.105469-3.285156-.347656-6.527343.9375-8.667968 3.445312-2.144532 2.507813-2.914063 5.910157-2.058594 9.097657.207031.769531 5.246094 19.042969 20.429688 37.566406 10.835937 13.222656 28.613281 28.578125 55.800781 35.617187-23.265625 12.921876-64.96875 29.570313-119.609375 24.449219-4.570313-.417969-8.847656 2.3125-10.367188 6.648438-1.523437 4.332031.105469 9.144531 3.941406 11.664062 49.910157 32.796875 105.710938 49.488281 161.785157 49.488281 36.292969 0 72.707031-6.996093 107.695312-21.148437 5.121094-2.070313 7.59375-7.898437 5.523438-13.019531-2.070313-5.121094-7.898438-7.589844-13.019531-5.523438zm0 0"/><path d="m509.363281 51.09375c-2.898437-3.152344-7.476562-4.109375-11.394531-2.386719-5.808594 2.558594-11.464844 4.664063-16.78125 6.398438 16.445312-19.8125 17.800781-35.226563 17.910156-37.523438.1875-3.8125-1.816406-7.398437-5.164062-9.242187-3.34375-1.839844-7.445313-1.617188-10.570313.578125-19.796875 13.910156-45 20.550781-55.921875 22.386719-20.667968-19.90625-47.660156-30.804688-76.554687-30.804688-60.945313 0-110.527344 49.582031-110.527344 110.527344 0 4.226562.242187 8.457031.722656 12.652344-35.121093.679687-70.664062-13.695313-95.253906-26.570313-4.894531-2.5625-10.9375-.667969-13.5 4.222656-2.5625 4.894531-.667969 10.9375 4.222656 13.5 29.535157 15.457031 73.863281 32.871094 117.316407 28.046875 2.820312-.3125 5.378906-1.8125 7.03125-4.125 1.648437-2.308594 2.242187-5.210937 1.625-7.984375-1.4375-6.457031-2.164063-13.101562-2.164063-19.742187 0-49.917969 40.609375-90.527344 90.527344-90.527344 25.066406 0 48.382812 10.015625 65.65625 28.207031 2.117187 2.230469 5.097656 3.324219 8.0625 3.078125 6.613281-.417968 24.070312-3.832031 42.84375-11.660156-5.664063 7.320312-14.058594 15.78125-26.476563 24.546875-3.671875 2.59375-5.164062 7.320313-3.644531 11.550781 1.523437 4.234375 5.679687 6.929688 10.164063 6.589844.707031-.054688 11.683593-.933594 27.5-5.046875-8.730469 9.480469-18.917969 18.304687-29.027344 24.875-2.839844 1.847656-4.550782 5-4.550782 8.386719 0 92.230468-39.417968 176.097656-108.152343 230.09375-4.339844 3.410156-5.097657 9.695312-1.683594 14.039062 1.972656 2.511719 4.90625 3.824219 7.871094 3.824219 2.160156 0 4.339843-.699219 6.171875-2.136719 35.097656-27.574218 64.082031-63.46875 83.816406-103.808594 20.476562-41.855468 31.210938-87.8125 31.9375-136.683593 20-14.085938 39.035156-34.695313 49.402344-53.707031 2.050781-3.757813 1.480468-8.402344-1.414063-11.554688zm0 0"/><path d="m301.527344 362.707031-.007813.003907c-4.863281 2.621093-6.679687 8.679687-4.0625 13.542968 1.808594 3.355469 5.253907 5.261719 8.816407 5.261719 1.601562 0 3.226562-.386719 4.734374-1.199219 4.863282-2.617187 6.679688-8.683594 4.0625-13.542968-2.617187-4.863282-8.683593-6.683594-13.542968-4.066407zm0 0"/><path d="m101.148438 93.523438c1.734374 1.199218 3.71875 1.777343 5.679687 1.777343 3.171875 0 6.289063-1.503906 8.230469-4.308593 3.144531-4.542969 2.011718-10.769532-2.527344-13.914063l-.007812-.003906c-4.539063-3.144531-10.765626-2.007813-13.910157 2.53125-3.144531 4.542969-2.007812 10.773437 2.535157 13.917969zm0 0"/>
</symbol>
<symbol id="youtube" viewBox="0 0 512 390">
<path d="m271.277344 144.113281-61.886719-38.234375v76.46875l.003906 76.46875 61.882813-38.234375 61.890625-38.234375zm0 0" fill="#fff" fill-rule="evenodd"/>
<path d="m209.390625 105.878906 61.886719 38.234375 61.890625 38.234375-61.890625 38.234375-61.882813 38.234375-.003906-76.46875zm-195.574219 163.375c5.242188 50.121094 25.367188 70.117188 66.09375 76.46875 76.730469 11.960938 275.449219 11.960938 352.183594 0 40.722656-6.351562 60.847656-26.34375 66.089844-76.46875 5.128906-48.996094 5.128906-124.816406 0-173.8125-5.242188-50.121094-25.367188-70.117187-66.089844-76.46875-76.734375-11.960937-275.453125-11.960937-352.183594 0-40.726562 6.351563-60.851562 26.347656-66.09375 76.46875-5.125 48.996094-5.125 124.816406 0 173.8125zm0 0" fill="#f00" fill-rule="evenodd"/>
<path d="m329.847656 343.492188c-23.492187.796874-48.335937 1.199218-73.847656 1.199218-73.746094 0-138.996094-3.308594-174.550781-8.851562-37.988281-5.921875-53.082031-23.621094-57.6875-67.628906-5.035157-48.148438-5.035157-123.582032 0-171.730469 4.605469-44.007813 19.699219-61.703125 57.6875-67.625 6.167969-.964844 13.414062-1.878907 21.542969-2.722657 5.496093-.570312 9.488281-5.484374 8.917968-10.980468-.570312-5.492188-5.492187-9.488282-10.980468-8.914063-8.46875.878907-16.058594 1.839844-22.5625 2.851563-23.695313 3.695312-40.304688 11.652344-52.265626 25.039062-12.308593 13.765625-19.371093 32.917969-22.234374 60.273438-5.15625 49.316406-5.15625 126.574218 0 175.890625 2.863281 27.355469 9.925781 46.503906 22.234374 60.273437 11.960938 13.386719 28.570313 21.34375 52.265626 25.035156 36.511718 5.695313 102.917968 9.09375 177.632812 9.09375 25.734375 0 50.808594-.40625 74.523438-1.210937 5.519531-.1875 9.84375-4.8125 9.65625-10.332031-.1875-5.519532-4.789063-9.84375-10.332032-9.660156zm0 0"/><path d="m508.132812 94.402344c-2.863281-27.351563-9.925781-46.503906-22.230468-60.273438-11.964844-13.386718-28.574219-21.34375-52.269532-25.035156-36.515624-5.695312-102.921874-9.09375-177.632812-9.09375-25.734375 0-50.804688.410156-74.519531 1.210938-5.523438.1875-9.847657 4.8125-9.660157 10.332031.1875 5.523437 4.792969 9.855469 10.335938 9.660156 23.488281-.796875 48.335938-1.199219 73.847656-1.199219 73.738282 0 138.992188 3.308594 174.550782 8.851563 37.984374 5.925781 53.082031 23.621093 57.683593 67.628906 5.039063 48.148437 5.039063 123.582031 0 171.730469-4.601562 44.007812-19.699219 61.703125-57.683593 67.628906-6.167969.960938-13.417969 1.875-21.546876 2.71875-5.492187.570312-9.484374 5.484375-8.914062 10.980469.535156 5.144531 4.875 8.96875 9.933594 8.96875.347656 0 .695312-.019531 1.046875-.054688 8.464843-.878906 16.054687-1.835937 22.558593-2.851562 23.695313-3.695313 40.304688-11.648438 52.269532-25.035157 12.304687-13.769531 19.367187-32.921874 22.230468-60.273437 5.15625-49.316406 5.15625-126.578125 0-175.894531zm0 0"/><path d="m338.421875 173.839844-123.773437-76.472656c-3.085938-1.90625-6.960938-1.992188-10.128907-.226563-3.164062 1.765625-5.128906 5.109375-5.128906 8.734375v152.941406c0 3.625 1.964844 6.96875 5.128906 8.734375 1.519531.84375 3.195313 1.265625 4.871094 1.265625 1.828125 0 3.648437-.5 5.257813-1.492187l123.773437-76.46875c2.949219-1.824219 4.746094-5.042969 4.746094-8.507813 0-3.46875-1.796875-6.6875-4.746094-8.507812zm-119.027344 67.042968v-117.070312l94.742188 58.535156zm0 0"/><path d="m141.84375 23.035156c.222656 0 .449219-.007812.675781-.019531 5.511719-.367187 9.679688-5.132813 9.3125-10.644531-.367187-5.511719-5.140625-9.6875-10.644531-9.316406h-.007812c-5.511719.367187-9.675782 5.132812-9.308594 10.644531.351562 5.285156 4.75 9.335937 9.972656 9.335937zm0 0"/><path d="m369.484375 341.683594c-5.511719.363281-9.683594 5.128906-9.316406 10.640625.351562 5.285156 4.75 9.335937 9.96875 9.335937.226562 0 .449219-.007812.675781-.019531h.007812c5.511719-.367187 9.675782-5.132813 9.308594-10.644531-.367187-5.511719-5.125-9.675782-10.644531-9.3125zm0 0"/>
</symbol>
</defs>
</svg>